<?xml version="1.0" encoding="UTF-8"?>
<svg id="Layer_4" data-name="Layer 4" xmlns="http://www.w3.org/2000/svg" viewBox="0 0 720 720">
  <defs>
    <style>
      .cls-1 {
        fill: #bf8c4d;
      }

      .cls-2 {
        fill: #fff;
      }
    </style>
  </defs>
  <g>
    <path class="cls-2" d="M232.178857,368.801091c-6.368111,7.933225-15.886131,11.062512-22.049596,7.549807l11.085408,79.108083,12.426038-88.675814c-.454535.683017-.933062,1.359213-1.46185,2.017924Z"/>
    <path class="cls-1" d="M210.250403,351.198909c6.368111-7.933304,15.886131-11.062591,22.049596-7.549886l-11.085329-79.108004-12.426116,88.675814c.454535-.683017.933062-1.359213,1.46185-2.017924Z"/>
    <circle class="cls-2" cx="221.214623" cy="360.000007" r="9.137093" transform="translate(-54.809264 40.083255) rotate(-9.217492)"/>
  </g>
  <g>
    <g>
      <path class="cls-2" d="M297.664947,380.108112h-.806014c-4.09724-7.455069-6.448115-9.536709-12.358888-9.536709h-1.612029v37.882679c0,4.969293.268671,8.328816,4.836087,8.328816v.806014h-19.613018v-.806014c4.567415,0,4.836087-3.359522,4.836087-8.328816v-37.882679h-1.612029c-5.843605,0-8.261648,2.08164-12.358888,9.536709h-.806014l1.007518-11.417409h37.479671l1.007518,11.417409Z"/>
      <path class="cls-2" d="M331.788482,408.991425c1.947868,5.440033,3.291226,7.522801,6.112276,7.791473v.806014h-19.881689v-.806014c3.962904-.268671,5.171926-2.217104,3.895736-5.978505l-2.888218-8.261084h-14.105253l-.537343,1.476564c-2.821051,7.859205-2.21654,11.889277,2.149372,12.763024v.806014h-11.552874v-.806014c2.350875-.873747,4.231576-5.104758,7.119794-13.164902l12.963399-35.868771h1.679197l15.045603,41.242201ZM305.794517,400.057534h12.358888l-6.112276-17.32931-6.246612,17.32931Z"/>
      <path class="cls-2" d="M376.323602,409.595371c2.350875,4.298744,4.433079,6.78339,6.515283,7.187527v.806014h-17.32931v-.806014c2.888218-.268671,3.022554-2.284836,1.8807-4.434208l-7.925809-14.843535-5.171926,8.731823c-3.627065,6.179444-3.828569,9.873112.403007,10.54592v.806014h-13.164902v-.806014c3.492729-.806014,7.052626-5.37343,10.545356-11.284202l6.179444-10.344981-9.873677-18.4706c-2.283708-4.298744-4.365912-6.784519-6.448115-7.186398v-.806014h17.262143v.806014c-2.821051.268671-3.022554,2.282579-1.813532,4.431951l7.25413,13.569039,4.433079-7.456198c3.627065-6.179444,3.962904-9.874241-.268671-10.544791v-.806014h12.896231v.806014c-3.492729.806014-6.918291,5.37343-10.41102,11.284202l-5.440597,9.067098,10.478188,19.747354Z"/>
    </g>
    <g>
      <path class="cls-2" d="M297.665841,314.770256h-.806033c-4.097333-7.455802-6.448262-9.538054-12.359168-9.538054h-1.612065v37.883537c0,4.970535.268678,8.329005,4.836196,8.329005v.806033h-19.613462v-.806033c4.567519,0,4.836196-3.35847,4.836196-8.329005v-37.883537h-1.612065c-5.843737,0-8.261835,2.082251-12.359168,9.538054h-.806033l1.007541-11.418796h37.48052l1.007541,11.418796Z"/>
      <path class="cls-2" d="M331.79015,343.653094c1.947912,5.440721,3.2913,7.522972,6.112415,7.791649v.806033h-19.88214v-.806033c3.962994-.268678,5.172043-2.21659,3.895825-5.978076l-2.888284-8.261835h-14.105572l-.537355,1.477727c-2.821114,7.858819-2.21659,11.888982,2.149421,12.762184v.806033h-11.553135v-.806033c2.350929-.873202,4.231672-5.104874,7.119955-13.165201l12.963692-35.868455h1.679235l15.045944,41.242006ZM305.795596,334.719565h12.359168l-6.112415-17.329703-6.246753,17.329703Z"/>
      <path class="cls-2" d="M343.346107,352.250776v-.806033c4.567519,0,4.836196-3.35847,4.836196-8.329005v-30.629242c0-4.970535-.268678-8.329005-4.836196-8.329005v-.806033h19.613462v.806033c-4.567519,0-4.836196,3.35847-4.836196,8.329005v35.062422c0,1.746404.604525,2.821114,2.418098,2.821114h2.082251c6.045245,0,9.873901-3.089792,14.777266-12.560676h.806033l-1.947912,14.441419h-32.913002Z"/>
      <path class="cls-2" d="M385.128855,352.250776v-.806033c4.567519,0,4.836196-3.35847,4.836196-8.329005v-30.629242c0-4.970535-.268678-8.329005-4.836196-8.329005v-.806033h19.613462v.806033c-4.567519,0-4.836196,3.35847-4.836196,8.329005v35.062422c0,1.746404.604525,2.821114,2.418098,2.821114h2.082251c6.045245,0,9.873901-3.089792,14.777266-12.560676h.806033l-1.947912,14.441419h-32.913002Z"/>
      <path class="cls-2" d="M463.988543,339.488592l-1.746404,12.762184h-35.3311v-.806033c4.567519,0,4.836196-3.35847,4.836196-8.329005v-30.629242c0-4.970535-.268678-8.329005-4.836196-8.329005v-.806033h34.323559l.940371,11.418796h-.806033c-4.097333-7.455802-6.64977-9.538054-14.105572-9.538054h-5.575059v20.486664h3.962994c6.5826,0,8.261835-1.947912,9.806731-6.246753h.806033v15.247452h-.806033c-1.612065-4.634688-3.224131-6.851278-9.806731-6.851278h-3.962994v19.344785c0,1.947912.604525,3.156961,2.686776,3.156961h3.694317c6.851278,0,10.344086-1.679235,15.113113-10.881441h.806033Z"/>
      <path class="cls-2" d="M499.591143,303.351459h11.620305v.806033c-2.753945.806033-5.440721,4.769027-9.269376,12.963692l-6.784109,14.777266v11.217288c0,4.970535.268678,8.329005,4.836196,8.329005v.806033h-19.613462v-.806033c4.567519,0,4.836196-3.35847,4.836196-8.329005v-10.209747l-9.269376-20.95685c-2.418098-5.50789-3.895825-7.522972-6.246753-7.791649v-.806033h19.88214v.806033c-3.962994.268678-5.172043,2.350929-3.627147,5.978076l8.127496,18.941768,5.709398-12.695015c3.627147-7.993158,4.231672-11.351627-.201508-12.224829v-.806033Z"/>
    </g>
  </g>
</svg>