<?xml version="1.0" encoding="UTF-8"?>
<svg id="Layer_4" data-name="Layer 4" xmlns="http://www.w3.org/2000/svg" viewBox="0 0 720 720">
  <defs>
    <style>
      .cls-1 {
        fill: #bf8c4d;
      }

      .cls-2 {
        fill: #fff;
      }
    </style>
  </defs>
  <g>
    <path class="cls-2" d="M198.484863,350.099609h-.697266c-3.544434-6.449219-5.578125-8.25-10.691406-8.25h-1.394531v32.771484c0,4.298828.232422,7.205078,4.183594,7.205078v.697266h-16.966797v-.697266c3.951172,0,4.183594-2.90625,4.183594-7.205078v-32.771484h-1.394531c-5.055176,0-7.146973,1.800781-10.691406,8.25h-.697266l.871582-9.876953h32.422852l.871582,9.876953Z"/>
    <path class="cls-2" d="M228.004395,375.085938c1.685059,4.706055,2.847168,6.507812,5.287598,6.740234v.697266h-17.199219v-.697266c3.428223-.232422,4.474121-1.917969,3.370117-5.171875l-2.498535-7.146484h-12.202148l-.464844,1.277344c-2.44043,6.798828-1.91748,10.285156,1.859375,11.041016v.697266h-9.994141v-.697266c2.033691-.755859,3.660645-4.416016,6.15918-11.388672l11.214355-31.029297h1.452637l13.015625,35.677734ZM205.517578,367.357422h10.691406l-5.287598-14.991211-5.403809,14.991211Z"/>
    <path class="cls-2" d="M238.000977,382.523438v-.697266c3.951172,0,4.183594-2.90625,4.183594-7.205078v-26.496094c0-4.300781-.232422-7.205078-4.183594-7.205078v-.697266h16.966797v.697266c-3.951172,0-4.183594,2.904297-4.183594,7.205078v30.330078c0,1.511719.522949,2.441406,2.091797,2.441406h1.80127c5.229492,0,8.541504-2.673828,12.783203-10.866211h.697266l-1.685059,12.493164h-28.47168Z"/>
    <path class="cls-2" d="M274.145508,382.523438v-.697266c3.951172,0,4.183594-2.90625,4.183594-7.205078v-26.496094c0-4.300781-.232422-7.205078-4.183594-7.205078v-.697266h16.966797v.697266c-3.951172,0-4.183594,2.904297-4.183594,7.205078v30.330078c0,1.511719.522949,2.441406,2.091797,2.441406h1.80127c5.229492,0,8.541504-2.673828,12.783203-10.866211h.697266l-1.685059,12.493164h-28.47168Z"/>
    <path class="cls-2" d="M342.36377,371.482422l-1.510742,11.041016h-30.563477v-.697266c3.951172,0,4.183594-2.90625,4.183594-7.205078v-26.496094c0-4.300781-.232422-7.205078-4.183594-7.205078v-.697266h29.691895l.813477,9.876953h-.697266c-3.544434-6.449219-5.752441-8.25-12.202148-8.25h-4.822754v17.72168h3.428223c5.694336,0,7.146973-1.68457,8.483398-5.40332h.697266v13.189453h-.697266c-1.394531-4.009766-2.789062-5.926758-8.483398-5.926758h-3.428223v16.734375c0,1.68457.522949,2.731445,2.324219,2.731445h3.195801c5.926758,0,8.948242-1.453125,13.07373-9.414062h.697266Z"/>
    <path class="cls-2" d="M373.162109,340.222656h10.052246v.697266c-2.382324.697266-4.706543,4.125-8.018555,11.213867l-5.868652,12.783203v9.704102c0,4.298828.232422,7.205078,4.183594,7.205078v.697266h-16.966797v-.697266c3.951172,0,4.183594-2.90625,4.183594-7.205078v-8.832031l-8.018555-18.128906c-2.091797-4.765625-3.370117-6.507812-5.403809-6.740234v-.697266h17.199219v.697266c-3.428223.232422-4.474121,2.033203-3.137695,5.170898l7.030762,16.385742,4.938965-10.982422c3.137695-6.914062,3.660645-9.819336-.174316-10.574219v-.697266Z"/>
    <path class="cls-2" d="M481.999023,350.099609h-.697266c-3.544434-6.449219-5.578125-8.25-10.691406-8.25h-1.394531v32.771484c0,4.298828.232422,7.205078,4.183594,7.205078v.697266h-16.966797v-.697266c3.951172,0,4.183594-2.90625,4.183594-7.205078v-32.771484h-1.394531c-5.055176,0-7.146973,1.800781-10.691406,8.25h-.697266l.871582-9.876953h32.422852l.871582,9.876953Z"/>
    <path class="cls-2" d="M511.518555,375.085938c1.685059,4.706055,2.847168,6.507812,5.287598,6.740234v.697266h-17.199219v-.697266c3.428223-.232422,4.474121-1.917969,3.370117-5.171875l-2.498535-7.146484h-12.202148l-.464844,1.277344c-2.44043,6.798828-1.91748,10.285156,1.859375,11.041016v.697266h-9.994141v-.697266c2.033691-.755859,3.660645-4.416016,6.15918-11.388672l11.214355-31.029297h1.452637l13.015625,35.677734ZM489.031738,367.357422h10.691406l-5.287598-14.991211-5.403809,14.991211Z"/>
    <path class="cls-2" d="M550.044922,375.608398c2.033691,3.71875,3.834961,5.868164,5.63623,6.217773v.697266h-14.991211v-.697266c2.498535-.232422,2.614746-1.976562,1.626953-3.835938l-6.856445-12.84082-4.474121,7.553711c-3.137695,5.345703-3.312012,8.541016.348633,9.123047v.697266h-11.388672v-.697266c3.021484-.697266,6.101074-4.648438,9.122559-9.761719l5.345703-8.949219-8.541504-15.978516c-1.975586-3.71875-3.776855-5.869141-5.578125-6.216797v-.697266h14.933105v.697266c-2.44043.232422-2.614746,1.974609-1.568848,3.833984l6.275391,11.738281,3.834961-6.450195c3.137695-5.345703,3.428223-8.541992-.232422-9.12207v-.697266h11.15625v.697266c-3.021484.697266-5.984863,4.648438-9.006348,9.761719l-4.706543,7.84375,9.064453,17.083008Z"/>
  </g>
  <g>
    <path class="cls-2" d="M424.499069,366.850983c-4.957092,6.175415-12.36615,8.611328-17.16394,5.876953l8.62915,61.579651,9.672729-69.027405c-.353821.531677-.726318,1.058044-1.137939,1.570801Z"/>
    <path class="cls-1" d="M407.429428,353.149017c4.957092-6.175476,12.36615-8.611389,17.16394-5.877014l-8.629089-61.57959-9.672791,69.027405c.353821-.531677.726318-1.058044,1.137939-1.570801Z"/>
    <circle class="cls-2" cx="415.964242" cy="360.000005" r="7.112535" transform="translate(-52.294543 71.278748) rotate(-9.217492)"/>
  </g>
</svg>